<?xml version="1.0" encoding="utf-8"?>
<!-- Generator: Adobe Illustrator 25.0.0, SVG Export Plug-In . SVG Version: 6.00 Build 0)  -->
<svg version="1.1" id="Слой_1" xmlns="http://www.w3.org/2000/svg" xmlns:xlink="http://www.w3.org/1999/xlink" x="0px" y="0px"
	 viewBox="0 0 14 10" style="enable-background:new 0 0 14 10;" xml:space="preserve">
<path d="M9,9.5c-0.1,0-0.3,0-0.4-0.1c-0.2-0.2-0.2-0.5,0-0.7L12.3,5L8.6,1.4c-0.2-0.2-0.2-0.5,0-0.7s0.5-0.2,0.7,0l4,4
	c0.2,0.2,0.2,0.5,0,0.7l-4,4C9.3,9.5,9.1,9.5,9,9.5z"/>
<path d="M13,5.5H1C0.7,5.5,0.5,5.3,0.5,5S0.7,4.5,1,4.5h12c0.3,0,0.5,0.2,0.5,0.5S13.3,5.5,13,5.5z"/>
</svg>
