<?xml version="1.0" encoding="utf-8"?>
<!-- Generator: Adobe Illustrator 25.0.0, SVG Export Plug-In . SVG Version: 6.00 Build 0)  -->
<svg version="1.1" id="Слой_1" xmlns="http://www.w3.org/2000/svg" xmlns:xlink="http://www.w3.org/1999/xlink" x="0px" y="0px"
	 viewBox="0 0 24 18" style="enable-background:new 0 0 24 18;" xml:space="preserve">
<style type="text/css">
	.st0{fill:#FF0202;}
</style>
<path class="st0" d="M12,18C4.5,18,0.3,9.8,0.1,9.4C0,9.2,0,8.8,0.1,8.6C0.3,8.2,4.5,0,12,0s11.7,8.2,11.9,8.6
	c0.1,0.3,0.1,0.6,0,0.9C23.7,9.8,19.5,18,12,18z M2.1,9c0.9,1.6,4.5,7,9.9,7c5.4,0,8.9-5.4,9.9-7c-0.9-1.6-4.5-7-9.9-7
	C6.6,2,3.1,7.4,2.1,9z"/>
<path class="st0" d="M12,13c-2.2,0-4-1.8-4-4c0-2.2,1.8-4,4-4c2.2,0,4,1.8,4,4C16,11.2,14.2,13,12,13z M12,7c-1.1,0-2,0.9-2,2
	c0,1.1,0.9,2,2,2c1.1,0,2-0.9,2-2C14,7.9,13.1,7,12,7z"/>
</svg>
