<?xml version="1.0" encoding="utf-8"?>
<!-- Generator: Adobe Illustrator 25.0.0, SVG Export Plug-In . SVG Version: 6.00 Build 0)  -->
<svg version="1.1" id="Слой_1" xmlns="http://www.w3.org/2000/svg" xmlns:xlink="http://www.w3.org/1999/xlink" x="0px" y="0px"
	 viewBox="0 0 52 36" style="enable-background:new 0 0 52 36;" xml:space="preserve">
<style type="text/css">
	.st0{fill:#FFFFFF;}
</style>
<path class="st0" d="M28.3,35.6h-6.7c-0.6,0-1-0.4-1-1V22.3h-4c-0.6,0-1-0.4-1-1v-6.6c0-0.6,0.4-1,1-1h4v-4c0-2.5,1-4.8,2.7-6.6
	c1.8-1.8,4.1-2.7,6.6-2.7h5c0.6,0,1,0.4,1,1v6.6c0,0.6-0.4,1-1,1h-5c-0.2,0-0.4,0.1-0.5,0.2c-0.1,0.1-0.2,0.3-0.2,0.5v4H35
	c0.3,0,0.6,0.1,0.8,0.4c0.2,0.2,0.3,0.6,0.2,0.9l-1.7,6.6c-0.1,0.4-0.5,0.8-1,0.8h-4v12.2C29.3,35.1,28.8,35.6,28.3,35.6z
	 M22.6,33.6h4.7V21.3c0-0.6,0.4-1,1-1h4.2l1.2-4.6h-5.4c-0.6,0-1-0.4-1-1v-5c0-0.7,0.3-1.4,0.8-1.9c0.5-0.5,1.2-0.8,1.9-0.8h4V2.4
	h-4c-1.9,0-3.8,0.8-5.2,2.1c-1.4,1.4-2.2,3.2-2.2,5.1v5c0,0.6-0.4,1-1,1h-4v4.6h4c0.6,0,1,0.4,1,1V33.6z"/>
</svg>
