<?xml version="1.0" encoding="utf-8"?>
<!-- Generator: Adobe Illustrator 25.0.0, SVG Export Plug-In . SVG Version: 6.00 Build 0)  -->
<svg version="1.1" id="Слой_1" xmlns="http://www.w3.org/2000/svg" xmlns:xlink="http://www.w3.org/1999/xlink" x="0px" y="0px"
	 viewBox="0 0 51 36" style="enable-background:new 0 0 51 36;" xml:space="preserve">
<style type="text/css">
	.st0{fill:#FFFFFF;}
</style>
<path class="st0" d="M33.9,35.6H17.1c-5.2,0-9.4-4.2-9.4-9.3V9.7c0-5.1,4.2-9.3,9.4-9.3h16.7c5.2,0,9.4,4.2,9.4,9.3v16.6
	C43.2,31.4,39,35.6,33.9,35.6z M17.1,2.4c-4.1,0-7.4,3.3-7.4,7.3v16.6c0,4,3.3,7.3,7.4,7.3h16.7c4.1,0,7.4-3.3,7.4-7.3V9.7
	c0-4-3.3-7.3-7.4-7.3H17.1z"/>
<path class="st0" d="M25.6,25.6c-0.4,0-0.8,0-1.2-0.1c-1.6-0.3-3.1-1-4.2-2.1c-1.2-1.1-1.9-2.6-2.2-4.2c-0.3-1.6,0-3.2,0.7-4.6
	c0.7-1.4,1.9-2.6,3.3-3.3c1.4-0.7,3.1-1,4.7-0.8c1.6,0.2,3.2,1,4.3,2.1c1.2,1.1,1.9,2.7,2.2,4.3c0.2,1.6,0,3.2-0.8,4.6
	c-0.8,1.4-1.9,2.6-3.4,3.3C27.9,25.3,26.8,25.6,25.6,25.6z M25.6,12.3c-0.9,0-1.8,0.2-2.6,0.6c-1.1,0.5-1.9,1.4-2.5,2.5
	c-0.5,1.1-0.7,2.2-0.5,3.4c0.2,1.2,0.7,2.2,1.6,3.1c0.9,0.8,1.9,1.4,3.1,1.6c1.2,0.2,2.4,0,3.5-0.5c1.1-0.5,1.9-1.4,2.5-2.4
	c0.6-1.1,0.8-2.2,0.6-3.4l0,0c-0.2-1.2-0.7-2.3-1.6-3.2c-0.9-0.8-2-1.4-3.2-1.6C26.1,12.3,25.8,12.3,25.6,12.3z"/>
</svg>
