<?xml version="1.0" encoding="utf-8"?>
<!-- Generator: Adobe Illustrator 25.0.0, SVG Export Plug-In . SVG Version: 6.00 Build 0)  -->
<svg version="1.1" id="Слой_1" xmlns="http://www.w3.org/2000/svg" xmlns:xlink="http://www.w3.org/1999/xlink" x="0px" y="0px"
	 viewBox="0 0 27 27" style="enable-background:new 0 0 27 27;" xml:space="preserve">
<style type="text/css">
	.st0{fill:#FFFFFF;}
</style>
<path class="st0" d="M13.5,26.5c-7.2,0-13-5.8-13-13c0-7.2,5.8-13,13-13c7.2,0,13,5.8,13,13C26.5,20.7,20.7,26.5,13.5,26.5z
	 M13.5,1.5c-6.6,0-12,5.4-12,12c0,6.6,5.4,12,12,12c6.6,0,12-5.4,12-12C25.5,6.9,20.1,1.5,13.5,1.5z"/>
<path class="st0" d="M13.5,19c-0.1,0-0.3,0-0.4-0.1l-5-5c-0.2-0.2-0.2-0.5,0-0.7l5-5c0.2-0.2,0.5-0.2,0.7,0s0.2,0.5,0,0.7l-4.6,4.6
	l4.6,4.6c0.2,0.2,0.2,0.5,0,0.7C13.8,19,13.6,19,13.5,19z"/>
<path class="st0" d="M18.5,14h-10C8.2,14,8,13.8,8,13.5S8.2,13,8.5,13h10c0.3,0,0.5,0.2,0.5,0.5S18.8,14,18.5,14z"/>
</svg>
