<?xml version="1.0" encoding="utf-8"?>
<!-- Generator: Adobe Illustrator 25.0.0, SVG Export Plug-In . SVG Version: 6.00 Build 0)  -->
<svg version="1.1" id="Слой_1" xmlns="http://www.w3.org/2000/svg" xmlns:xlink="http://www.w3.org/1999/xlink" x="0px" y="0px"
	 viewBox="0 0 52 36" style="enable-background:new 0 0 52 36;" xml:space="preserve">
<style type="text/css">
	.st0{fill:#FFFFFF;}
</style>
<path class="st0" d="M24.3,20.7c-0.3,0-0.5-0.1-0.7-0.3c-0.4-0.4-0.4-1,0-1.4L42,0.7c0.4-0.4,1-0.4,1.4,0c0.4,0.4,0.4,1,0,1.4
	L25,20.4C24.8,20.6,24.6,20.7,24.3,20.7z"/>
<path class="st0" d="M31,35.6c-0.4,0-0.8-0.2-0.9-0.6l-6.5-14.6L8.8,13.9c-0.4-0.2-0.6-0.5-0.6-1s0.3-0.8,0.7-0.9L42.4,0.5
	c0.4-0.1,0.8,0,1,0.2c0.3,0.3,0.4,0.7,0.2,1L32,34.9C31.8,35.3,31.5,35.5,31,35.6C31,35.6,31,35.6,31,35.6z M12,13.1l12.7,5.6
	c0.2,0.1,0.4,0.3,0.5,0.5l5.7,12.6L41.1,3.1L12,13.1z"/>
</svg>
