<?xml version="1.0" encoding="utf-8"?>
<!-- Generator: Adobe Illustrator 25.0.0, SVG Export Plug-In . SVG Version: 6.00 Build 0)  -->
<svg version="1.1" id="Слой_1" xmlns="http://www.w3.org/2000/svg" xmlns:xlink="http://www.w3.org/1999/xlink" x="0px" y="0px"
	 viewBox="0 0 51 36" style="enable-background:new 0 0 51 36;" xml:space="preserve">
<style type="text/css">
	.st0{fill:#FFFFFF;}
</style>
<path class="st0" d="M17.9,35.5c-4.7,0-9.6-1.2-14-3.7c-0.4-0.2-0.6-0.7-0.5-1.1c0.1-0.4,0.5-0.8,1-0.7c3.8,0.2,7.6-0.8,10.9-2.6
	C11,25.1,8.1,22,6.6,18.1C3.7,10.7,7,3.2,7.2,2.9C7.3,2.6,7.6,2.3,8,2.3c0.4,0,0.7,0.1,0.9,0.4c1.8,2.5,4.2,4.6,7,6
	c2.5,1.2,5.2,1.9,8,2V9.8c0-1.9,0.5-3.7,1.6-5.3c1.1-1.6,2.6-2.8,4.4-3.5c1.8-0.7,3.7-0.8,5.6-0.3c1.7,0.4,3.1,1.2,4.3,2.4
	c1.8-0.6,3.5-1.4,5-2.5c0.3-0.2,0.8-0.2,1.1,0c0.3,0.2,0.5,0.7,0.4,1.1c-0.6,2.6-1.9,5-3.8,6.9c0.1,0.4,0.1,0.8,0.1,1.2
	c0,9.7-4.3,17.9-11.9,22.3C27,34.4,22.5,35.5,17.9,35.5z M8.4,31.8c7.2,2.7,15.1,2.3,21.4-1.4c6.9-4.1,10.9-11.6,10.9-20.6
	c0-0.4,0-0.9-0.1-1.3c-0.1-0.3,0-0.7,0.3-0.9c1.1-1.1,2-2.4,2.7-3.8c-1.2,0.6-2.4,1.1-3.7,1.5c-0.4,0.1-0.8,0-1-0.3
	c-1-1.1-2.3-1.9-3.8-2.3c-1.5-0.4-3-0.3-4.4,0.3c-1.4,0.5-2.6,1.5-3.5,2.7c-0.8,1.2-1.3,2.7-1.3,4.2v1.9c0,0.5-0.4,1-1,1
	c-3.4,0.1-6.9-0.7-9.9-2.2c-2.5-1.2-4.7-3-6.6-5.1c-0.8,2.5-1.8,7.4,0,12.1c1.5,3.9,4.7,6.9,9.4,9c0.3,0.1,0.6,0.5,0.6,0.8
	s-0.1,0.7-0.4,0.9C15.1,30,11.8,31.3,8.4,31.8z"/>
</svg>
