<?xml version="1.0" encoding="utf-8"?>
<!-- Generator: Adobe Illustrator 25.0.0, SVG Export Plug-In . SVG Version: 6.00 Build 0)  -->
<svg version="1.1" id="Слой_1" xmlns="http://www.w3.org/2000/svg" xmlns:xlink="http://www.w3.org/1999/xlink" x="0px" y="0px"
	 viewBox="0 0 15 15" style="enable-background:new 0 0 15 15;" xml:space="preserve">
<style type="text/css">
	.st0{fill:#C4C4C4;}
	.st1{fill:#FFFFFF;}
</style>
<path class="st0" d="M7.5,15c4.1,0,7.5-3.4,7.5-7.5C15,3.4,11.6,0,7.5,0C3.4,0,0,3.4,0,7.5C0,11.6,3.4,15,7.5,15z"/>
<path class="st1" d="M10.5,10c-0.2,0-0.3,0-0.4-0.1l-3-1.5C6.7,8.2,6.5,7.9,6.5,7.5V3c0-0.6,0.4-1,1-1c0.6,0,1,0.4,1,1v3.9l2.4,1.2
	c0.5,0.2,0.7,0.8,0.4,1.3C11.2,9.8,10.9,10,10.5,10z"/>
</svg>
