<?xml version="1.0" encoding="utf-8"?>
<!-- Generator: Adobe Illustrator 25.0.0, SVG Export Plug-In . SVG Version: 6.00 Build 0)  -->
<svg version="1.1" id="Слой_1" xmlns="http://www.w3.org/2000/svg" xmlns:xlink="http://www.w3.org/1999/xlink" x="0px" y="0px"
	 viewBox="0 0 51 36" style="enable-background:new 0 0 51 36;" xml:space="preserve">
<style type="text/css">
	.st0{fill:#FFFFFF;}
</style>
<path class="st0" d="M24.9,35.6c-0.6,0-14.8,0-18.6-1c-1.1-0.3-2.2-0.9-3-1.8c-0.8-0.8-1.5-1.9-1.8-3c-0.7-3.9-1-7.8-1-11.7
	c0-3.8,0.3-7.7,1-11.5c0.3-1.2,0.9-2.3,1.8-3.2c0.8-0.9,1.9-1.5,3.1-1.9c3.8-1,18-1,18.6-1c0.6,0,14.8,0,18.6,0.9
	c1.2,0.3,2.3,1,3.1,1.9c0.8,0.9,1.5,2,1.7,3.2c0,0,0,0,0,0.1c0.7,3.8,1,7.7,1,11.6c0,3.8-0.3,7.7-1,11.4c-0.3,1.2-0.9,2.3-1.8,3.2
	c-0.8,0.9-1.9,1.5-3.1,1.9C39.8,35.5,25.5,35.6,24.9,35.6z M24.9,2.4c-0.1,0-14.6,0-18.1,1C6.1,3.6,5.3,4.1,4.7,4.7
	C4.1,5.3,3.7,6.1,3.5,7c-0.6,3.6-1,7.4-1,11.1c0,3.8,0.3,7.5,1,11.2c0.2,0.7,0.6,1.5,1.3,2.1c0.6,0.6,1.3,1,2.2,1.3
	c3.5,0.9,17.9,1,18.1,1s14.6,0,18.1-1c0.8-0.2,1.6-0.7,2.2-1.3c0.6-0.6,1-1.4,1.2-2.2c0.6-3.6,1-7.3,1-11c0-3.8-0.3-7.5-1-11.2
	c-0.2-0.8-0.6-1.6-1.2-2.2C44.6,4,43.8,3.5,43,3.3C39.5,2.5,25.1,2.4,24.9,2.4z"/>
<path class="st0" d="M20.1,26c-0.2,0-0.3,0-0.5-0.1c-0.3-0.2-0.5-0.5-0.5-0.9V11c0-0.4,0.2-0.7,0.5-0.9c0.3-0.2,0.7-0.2,1,0l12.3,7
	c0.3,0.2,0.5,0.5,0.5,0.9s-0.2,0.7-0.5,0.9l-12.3,7C20.5,26,20.3,26,20.1,26z M21.1,12.8v10.6l9.2-5.3L21.1,12.8z"/>
</svg>
